Coordinates
version=1
nRows=12
nColumns=24
inDegrees=yes

Units are S.I. units (second, meters, Newtons, ...)
Angles are in degrees.

endheader
time	pelvis_tilt	pelvis_list	pelvis_rotation	pelvis_tx	pelvis_ty	pelvis_tz	hip_flexion_r	hip_adduction_r	hip_rotation_r	knee_angle_r	ankle_angle_r	subtalar_angle_r	mtp_angle_r	hip_flexion_l	hip_adduction_l	hip_rotation_l	knee_angle_l	ankle_angle_l	subtalar_angle_l	mtp_angle_l	lumbar_extension	lumbar_bending	lumbar_rotation
      2.93000000	     23.11889476	     -3.21661903	      5.54005678	      0.10517507	      1.03892347	      0.04830783	    -17.27601524	      6.26669137	    -10.54507661	    -11.69591898	      9.73123366	     -5.95850583	      6.73750019	     -8.22613909	    -12.76460968	     -5.73641043	    -54.79624113	      0.80735044	    -10.83343123	     44.69862079	    -37.69118023	      5.99743101	      9.23560970
      2.93500000	     23.22458918	     -3.15398484	      5.38645553	      0.11004524	      1.03953890	      0.04886705	    -17.87460505	      6.23358688	    -10.37050581	    -11.38587252	      9.83578220	     -5.85181721	      6.66430472	     -7.91776383	    -12.65557941	     -6.06821706	    -54.42946821	      1.05214503	    -10.46328011	     44.46414491	    -37.82452953	      5.87700936	      9.42435943
      2.94000000	     23.29784065	     -3.07670827	      5.21982823	      0.11492564	      1.04009929	      0.04941792	    -18.42670664	      6.17188996	    -10.20944874	    -11.10315388	      9.96392187	     -5.73998315	      6.58775750	     -7.60118710	    -12.51530773	     -6.41039048	    -53.99859174	      1.34175084	    -10.07220843	     44.19899814	    -37.92337920	      5.73544113	      9.56515557
      2.94500000	     23.34796596	     -2.98308179	      5.04988734	      0.11975157	      1.04058888	      0.04992826	    -18.93477538	      6.08126390	    -10.07651008	    -10.85245519	     10.09242611	     -5.64902271	      6.54007067	     -7.26651423	    -12.34243254	     -6.75051404	    -53.52571119	      1.63502843	     -9.73144055	     44.02107750	    -38.00519749	      5.58110613	      9.64983748
      2.95000000	     23.48137880	     -2.92221715	      4.88118785	      0.12460554	      1.04117013	      0.05042445	    -19.55948698	      6.03098580	     -9.88520888	    -10.54827943	     10.20340527	     -5.51109090	      6.42890704	     -7.06075317	    -12.20832680	     -7.10445468	    -52.96398920	      1.89364232	     -9.30662484	     43.60309538	    -38.16712830	      5.45905010	      9.84562115
      2.95500000	     23.52115866	     -2.83284897	      4.72663292	      0.12941779	      1.04159114	      0.05084731	    -20.05007043	      5.93769149	     -9.77127952	    -10.31028776	     10.40947029	     -5.35324995	      5.58199730	     -6.74383878	    -12.01977135	     -7.42313330	    -52.40942199	      2.45313877	     -8.70106134	     40.50811239	    -38.23545528	      5.32127167	      9.91133225
      2.96000000	     23.58414001	     -2.75614675	      4.56610714	      0.13422853	      1.04201536	      0.05130727	    -20.56901047	      5.85874229	     -9.62065679	    -10.05764547	     10.53549097	     -5.25141889	      5.57334646	     -6.48092871	    -11.85233919	     -7.76584822	    -51.75665674	      2.70316708	     -8.30946208	     40.49935839	    -38.32639418	      5.18529562	     10.01043855
      2.96500000	     23.63912916	     -2.66297765	      4.39896577	      0.13903444	      1.04240473	      0.05171122	    -21.07081762	      5.75149529	     -9.49712159	     -9.82222534	     10.65443484	     -5.16872215	      5.56356100	     -6.23643660	    -11.65277135	     -8.12044555	    -51.03784853	      2.96297696	     -7.97106253	     40.45285334	    -38.41131880	      5.03794895	     10.07423622
      2.97000000	     23.73941284	     -2.58015301	      4.23811302	      0.14383636	      1.04282066	      0.05213008	    -21.63286541	      5.66101659	     -9.34608825	     -9.56217403	     10.76975601	     -5.04860757	      5.54412565	     -6.06544206	    -11.46688069	     -8.47467516	    -50.25245273	      3.19546320	     -7.62206519	     40.32669301	    -38.54193649	      4.89719724	     10.17932121
      2.97500000	     23.81111823	     -2.48904524	      4.08952688	      0.14863207	      1.04317012	      0.05247089	    -22.15352138	      5.55658897	     -9.22980160	     -9.32145964	     10.88613636	     -4.95382403	      5.52375681	     -5.87556694	    -11.26000987	     -8.81631251	    -49.41847268	      3.42501950	     -7.31378790	     40.16556042	    -38.64237406	      4.76255125	     10.23434378
      2.98000000	     23.89306970	     -2.40315484	      3.96945211	      0.15342926	      1.04349462	      0.05274117	    -22.69391705	      5.46287448	     -9.13723579	     -9.06381804	     11.03632278	     -4.74875963	      5.12424690	     -5.70505027	    -11.04658850	     -9.10714602	    -48.55914985	      3.85982344	     -6.85606190	     37.61109025	    -38.74926336	      4.64905052	     10.29596886
      2.98500000	     23.97021134	     -2.32481270	      3.83295419	      0.15818235	      1.04377352	      0.05304375	    -23.21012570	      5.37146021	     -8.99872736	     -8.83208386	     11.13943631	     -4.68731043	      5.12672161	     -5.55360881	    -10.84618889	     -9.43827118	    -47.62117699	      4.04397513	     -6.57702119	     37.56250244	    -38.85831698	      4.53017760	     10.35081140
